<?xml version="1.0" encoding="utf-8"?>
<svg viewBox="0 0 500 500" xmlns="http://www.w3.org/2000/svg">
  <path fill="rgb(129,148,224)" fill-opacity="1.000" d="M 183.241 41.332 C 193.775 29.762 206.243 21.282 220.647 15.891 C 226.313 13.778 231.589 12.311 236.471 11.488 C 254.52 8.449 272.004 10.322 288.919 17.111 C 301.578 22.197 312.518 29.761 321.741 39.801 C 336.788 56.181 344.439 75.52 344.691 97.812 C 344.786 106.212 343.648 114.689 341.276 123.241 C 338.96 130.78 336.085 137.739 332.648 144.118 C 328.745 151.363 323.697 157.994 317.504 164.01 C 301.366 179.685 285.212 195.341 269.038 210.973 C 265.113 214.765 262.258 217.212 260.475 218.312 C 253.883 222.39 246.599 222.994 238.624 220.127 C 235.089 218.853 232.137 216.636 229.767 213.475 C 228.226 211.41 227.445 210.368 227.422 210.345 C 211.501 190.836 196.141 170.895 181.342 150.521 C 176.96 144.486 173.165 137.782 169.961 130.414 C 164.181 117.117 161.768 103.339 162.721 89.075 C 163.222 83.069 164.312 77.175 165.993 71.392 C 169.425 60.217 175.175 50.197 183.241 41.332 Z"/>
  <path fill="rgb(134,223,248)" fill-opacity="1.000" d="M 436.688 129.599 C 436.428 129.69 435.996 129.69 435.395 129.599 C 425.168 128.093 414.809 128.61 404.313 131.153 C 396.728 132.988 389.862 135.207 383.713 137.81 C 370.524 143.391 358.115 150.013 346.494 157.68 C 342.663 160.204 339.047 162.375 335.65 164.19 C 335.483 164.278 335.437 164.232 335.509 164.054 C 335.915 163.012 336.359 161.985 336.842 160.975 C 341.608 151.059 347.387 141.778 354.181 133.132 C 358.776 127.488 364.107 122.657 370.173 118.637 C 377.976 113.471 386.765 110.203 396.541 108.831 C 399.695 108.392 402.699 108.251 405.55 108.413 C 408.582 108.587 411.542 108.991 414.427 109.628 C 418.19 110.453 421.751 111.875 425.11 113.895 C 431.14 117.516 435 122.75 436.688 129.599 Z"/>
  <path fill="rgb(121,143,221)" fill-opacity="1.000" d="M 104.514 124.208 C 123.908 127.753 139.646 136.098 152.934 150.544 C 153.161 150.913 159 164.339 161.529 170.662 C 167.274 185.025 173.668 198.921 180.285 212.769 C 183.172 218.811 184.727 221.807 184.75 221.856 C 190.435 233.501 196.197 245.108 202.037 256.679 C 202.113 256.832 202.155 256.999 202.161 257.175 C 179.877 264.411 157.71 271.984 135.657 279.9 C 124.435 283.923 113.206 287.932 101.971 291.925 C 87.346 297.125 72.652 297.309 57.89 292.474 C 49.54 289.602 42.438 285.739 36.591 280.877 C 18.78 266.063 8.573 247.05 5.972 223.839 C 4.319 209.093 5.807 194.69 10.438 180.63 C 12.675 173.829 15.753 167.477 19.671 161.574 C 21.672 158.551 23.934 155.541 26.459 152.539 C 32.299 145.58 39.05 139.659 46.713 134.781 C 49.914 132.743 53.241 130.981 56.688 129.497 C 71.87 122.967 87.811 121.205 104.514 124.208 Z"/>
  <path fill="rgb(60,78,148)" fill-opacity="1.000" d="M 434.468 139.982 C 434.468 139.982 431.944 142.282 430.979 143.122 C 404.398 166.283 377.844 189.321 351.015 212.356 C 341.354 220.651 330.442 229.38 318.238 238.494 C 314.144 241.552 305.367 247.879 291.914 257.476 C 291.899 257.487 291.533 257.694 290.812 258.097 C 290.36 258.354 290 258.713 289.733 259.176 C 282.272 254.114 278.739 246.984 279.132 237.787 C 279.354 232.678 281.327 228.397 285.054 224.941 C 298.93 212.082 313.876 198.916 329.891 185.44 C 336.977 179.479 343.608 174.247 349.783 169.746 C 360.682 161.796 372.302 155.089 384.64 149.626 C 400.806 142.466 417.647 139.28 434.468 139.982 Z"/>
  <path fill="rgb(97,122,213)" fill-opacity="1.000" d="M 434.467 139.982 C 437.643 139.982 440.453 140.202 443.589 140.739 C 447.394 141.535 451.066 142.729 454.609 144.315 C 461.752 147.68 467.923 152.331 473.127 158.269 C 477.769 163.565 481.595 169.365 484.605 175.668 C 486.199 178.997 487.619 182.485 488.866 186.13 C 491.883 194.951 493.368 204.176 493.319 213.803 C 493.273 222.671 492.005 231.174 489.515 239.313 C 485.112 253.708 477.961 266.268 468.063 276.99 C 458.064 287.828 445.809 295.391 431.297 299.679 C 415.986 303.628 400.822 303.165 385.804 298.288 C 380.542 296.578 371.876 293.274 359.809 288.377 C 343.228 281.873 322.872 273.651 298.742 263.708 C 295.237 262.266 292.234 260.755 289.733 259.176 C 290 258.713 290.359 258.354 290.811 258.097 C 291.533 257.694 291.899 257.488 291.914 257.476 C 305.367 247.88 314.144 241.552 318.238 238.495 C 330.434 229.372 341.359 220.658 351.015 212.356 C 377.742 189.36 404.397 166.283 430.978 143.122 C 431.944 142.283 434.467 139.982 434.467 139.982 Z"/>
  <path fill="rgb(63,79,147)" fill-opacity="1.000" d="M 152.933 150.543 C 155.266 153.119 159.272 157.911 163.744 163.613 C 179.722 183.986 195.521 204.495 211.142 225.145 C 211.955 226.217 212.709 227.332 213.402 228.485 C 214.129 229.686 214.653 230.91 214.973 232.158 C 216.347 237.52 215.802 242.809 213.335 248.026 C 211.036 252.895 207.312 255.945 202.161 257.175 C 202.155 256.999 202.113 256.832 202.037 256.679 C 196.197 245.108 190.435 233.501 184.75 221.856 C 184.727 221.807 183.239 218.778 180.285 212.769 C 173.496 198.972 167.244 184.936 161.529 170.662 C 158.937 164.195 156.198 157.793 153.313 151.452 C 153.225 151.26 153.313 151.45 152.933 150.543 Z"/>
  <path fill="rgb(116,138,220)" fill-opacity="1.000" d="M 233.186 274.164 C 229.593 271.029 227.225 267.292 226.083 262.951 C 223.902 254.682 225.48 247.434 230.819 241.211 C 235.012 236.321 240.476 233.826 247.208 233.723 C 254.131 233.614 259.82 236.216 264.268 241.528 C 266.141 243.77 267.546 246.19 268.485 248.79 C 269.399 251.34 269.805 254.056 269.698 256.937 C 269.49 262.74 267.3 267.846 263.133 272.254 C 261.052 274.453 258.694 276.204 256.057 277.504 C 253.379 278.822 250.593 279.523 247.699 279.606 C 242.357 279.763 237.519 277.95 233.186 274.164 Z"/>
  <path fill="rgb(62,80,150)" fill-opacity="1.000" d="M 231.926 314.677 C 231.625 314.636 231.268 314.695 230.852 314.852 C 205.31 324.712 178.68 334.231 150.966 343.408 C 147.546 344.539 143.459 345.652 138.704 346.749 C 127.589 349.31 116.523 349.815 105.502 348.263 C 102.658 347.863 99.476 347.226 95.957 346.347 C 92.397 345.457 89.278 344.545 86.605 343.606 C 81.963 341.975 78.938 340.943 77.529 340.509 C 80.351 336.558 83.497 332.881 86.966 329.478 C 95.537 321.073 105.193 314.288 115.93 309.123 C 118.559 307.856 122.052 306.453 126.406 304.913 C 150.262 296.489 174.205 288.319 198.234 280.402 C 203.166 278.783 205.652 277.966 205.693 277.955 C 207.415 277.525 209.166 277.277 210.942 277.21 C 212.662 277.14 214.397 277.347 216.153 277.826 C 224.462 280.094 230.045 285.324 232.903 293.52 C 233.639 295.633 233.945 297.935 233.82 300.425 C 233.8 300.749 233.52 303.024 232.979 307.251 C 232.657 309.729 232.306 312.206 231.926 314.677 Z" style=""/>
  <path fill="rgb(70,206,126)" fill-opacity="1.000" d="M 400.097 315.525 C 399.801 315.149 399.471 314.808 399.101 314.508 C 398.427 313.958 398.66 313.739 399.801 313.852 C 402.431 314.116 405.064 314.303 407.703 314.417 C 416.553 314.674 425.204 313.494 433.658 310.88 C 436.315 310.062 438.957 309.205 441.588 308.308 C 441.741 308.253 441.908 308.323 441.972 308.466 C 442.838 310.335 443.589 312.249 444.222 314.208 C 446.187 320.313 445.828 326.248 443.141 332.021 C 441.107 336.388 438.242 339.554 434.547 341.52 C 432.01 342.869 429.388 344.011 426.674 344.946 C 426.524 344.998 426.36 344.928 426.295 344.782 C 423.628 338.95 420.126 333.802 415.79 329.337 C 410.338 323.719 405.107 319.115 400.097 315.525 Z"/>
  <path fill="rgb(103,128,215)" fill-opacity="1.000" d="M 231.926 314.677 C 228.257 341.738 225.487 361.047 223.613 372.603 C 221.202 387.475 217.161 401.892 211.492 415.846 C 208.078 424.235 204.007 432.086 199.279 439.394 C 195.298 445.547 190.567 451.272 185.09 456.569 C 179.093 462.366 172.34 467.101 164.84 470.771 C 156.171 474.741 147.128 476.781 137.709 476.89 C 133.994 476.932 130.245 476.635 126.463 475.997 C 114.377 473.952 103.446 469.003 93.668 461.151 C 88.734 457.184 84.363 452.794 80.559 447.977 C 78.268 445.078 76.094 442 74.037 438.745 C 67.846 428.931 63.903 418.188 62.209 406.522 C 60.678 395.956 60.809 385.418 62.603 374.902 C 63.982 366.828 66.517 359.14 70.205 351.836 C 72.266 347.811 74.708 344.035 77.529 340.509 C 78.938 340.943 81.963 341.975 86.605 343.606 C 89.278 344.545 92.397 345.457 95.957 346.347 C 99.476 347.226 102.658 347.863 105.502 348.263 C 116.523 349.815 127.589 349.31 138.704 346.749 C 143.459 345.652 147.546 344.539 150.966 343.408 C 178.68 334.231 205.31 324.712 230.852 314.852 C 231.268 314.695 231.625 314.636 231.926 314.677 Z"/>
  <path fill="rgb(69,205,124)" fill-opacity="1.000" d="M 238.264 429.929 C 238.456 430.484 240.455 435.354 240.455 435.354 C 240.525 435.534 240.541 435.723 240.5 435.893 C 236.676 451.477 228.823 464.748 216.94 475.703 C 213.605 478.778 210.125 481.333 206.501 483.367 C 202.463 485.634 198.133 486.979 193.514 487.402 C 185.477 488.133 178.715 485.402 173.234 479.213 C 173.136 479.103 173.168 478.929 173.302 478.863 C 176.3 477.31 179.168 475.643 181.906 473.862 C 184.588 472.115 187.215 470.102 189.785 467.827 C 194.615 463.552 199.063 458.899 203.127 453.862 C 206.013 450.313 208.662 446.597 211.073 442.711 C 218.62 430.557 224.326 417.588 228.196 403.804 C 228.521 402.646 228.96 401.397 229.513 400.05 C 229.762 399.456 229.949 399.473 230.074 400.107 C 232.122 410.295 234.896 420.237 238.264 429.929 Z"/>
  <path fill="rgb(91,116,211)" fill-opacity="1.000" d="M 252.175 432.788 C 250.46 428.911 249.291 425.723 248.26 421.61 C 248.823 419.85 250.54 413.706 251.587 410.043 C 256.268 393.674 261.055 377.16 265.659 360.617 C 269.596 346.47 273.326 332.266 277.198 318.096 C 277.289 317.754 277.658 317.564 277.99 317.689 C 292.404 323.172 306.85 328.691 321.329 334.248 C 331.102 338 340.914 341.642 350.767 345.172 C 355.098 346.84 359.462 348.428 363.855 349.935 C 371.125 352.425 378.16 353.953 384.955 354.519 C 391.58 355.068 398.407 354.417 405.441 352.564 C 409.149 351.556 412.775 350.318 416.321 348.846 L 417.326 350.493 C 419.94 355.296 421.982 360.17 423.244 365.256 C 425.217 373.209 426.176 381.404 426.12 389.839 C 426.048 400.274 424.16 410.356 420.452 420.084 C 413.72 437.769 402.464 452.518 386.686 464.327 C 375.205 472.925 362.62 478.377 348.929 480.682 C 341.696 481.899 333.879 482.284 325.476 481.836 C 315.851 481.317 306.566 479.287 297.623 475.739 C 289.198 472.498 281.57 467.93 274.734 462.034 C 269.252 457.464 264.495 452.236 260.465 446.352 C 257.282 442.085 254.517 437.565 252.175 432.788 Z" style=""/>
  <path fill-opacity="1.000" d="M 375.184 316.34 C 379.891 318.302 383.325 319.85 385.487 320.986 C 394.003 325.457 401.654 331.302 408.444 338.52 C 411.596 341.874 414.222 345.314 416.321 348.846 C 412.775 350.318 409.149 351.556 405.441 352.564 C 398.407 354.417 391.58 355.068 384.955 354.519 C 378.16 353.953 371.125 352.425 363.855 349.935 C 359.462 348.428 355.098 346.84 350.767 345.172 C 340.914 341.642 331.102 338 321.329 334.248 C 306.85 328.691 292.404 323.172 277.99 317.689 C 277.658 317.564 277.291 317.755 277.198 318.096 C 273.326 332.266 269.584 346.493 265.659 360.617 C 261.071 377.124 256.511 393.635 251.587 410.043 C 250.491 413.7 248.44 421.342 248.26 421.611 C 245.042 410.58 243.48 398.552 243.986 387.143 C 244.058 385.519 244.316 381.758 244.76 375.858 C 245.093 371.419 245.483 367.557 245.937 364.268 C 246.901 357.234 249.679 337.689 254.271 305.635 C 254.924 301.073 255.346 298.442 255.543 297.741 C 256.263 295.154 257.475 292.734 259.182 290.485 C 260.995 288.091 263.078 286.069 265.432 284.415 C 267.881 282.689 270.47 281.482 273.202 280.792 C 276.605 279.934 280.001 279.918 283.392 280.747 C 283.784 280.84 286.9 281.983 292.739 284.174 C 300.285 287.002 307.815 289.869 315.326 292.779 C 335.438 300.232 355.39 308.085 375.184 316.34 Z" style="fill: rgb(60, 78, 148);"/>
</svg>