<?xml version="1.0" encoding="utf-8"?>
<svg viewBox="0 0 500 500" xmlns="http://www.w3.org/2000/svg">
  <path fill="rgb(129,148,224)" fill-opacity="1.000" d="M 180.588 43.618 C 191.122 32.048 203.59 23.568 217.994 18.177 C 223.66 16.064 228.936 14.597 233.818 13.774 C 251.867 10.735 269.351 12.608 286.266 19.397 C 298.925 24.483 309.865 32.047 319.088 42.087 C 334.135 58.467 341.786 77.806 342.038 100.098 C 342.133 108.498 340.995 116.975 338.623 125.527 C 336.307 133.066 333.432 140.025 329.995 146.404 C 326.092 153.649 321.044 160.28 314.851 166.296 C 298.713 181.971 282.559 197.627 266.385 213.259 C 262.46 217.051 259.605 219.498 257.822 220.598 C 251.23 224.676 243.946 225.28 235.971 222.413 C 232.436 221.139 229.484 218.922 227.114 215.761 C 225.573 213.696 224.792 212.654 224.769 212.631 C 208.848 193.122 193.488 173.181 178.689 152.807 C 174.307 146.772 170.512 140.068 167.308 132.7 C 161.528 119.403 159.115 105.625 160.068 91.361 C 160.569 85.355 161.659 79.461 163.34 73.678 C 166.772 62.503 172.522 52.483 180.588 43.618 Z"/>
  <path fill="rgb(129,148,224)" fill-opacity="1.000" d="M 101.861 126.494 C 121.255 130.039 136.993 138.384 150.281 152.83 C 150.281 152.83 150.281 152.83 150.281 152.83 C 152.614 155.407 156.62 160.198 161.091 165.899 C 177.069 186.272 192.868 206.781 208.489 227.431 C 209.302 228.503 210.056 229.618 210.749 230.771 C 211.476 231.972 212 233.196 212.32 234.444 C 213.694 239.806 213.149 245.095 210.682 250.312 C 208.383 255.181 204.659 258.231 199.508 259.461 C 177.224 266.697 155.057 274.27 133.004 282.186 C 121.782 286.209 110.553 290.218 99.318 294.211 C 84.693 299.411 69.999 299.595 55.237 294.76 C 46.887 291.888 39.785 288.025 33.938 283.163 C 16.127 268.349 5.92 249.336 3.319 226.125 C 1.666 211.379 3.154 196.976 7.785 182.916 C 10.022 176.115 13.1 169.763 17.018 163.86 C 19.019 160.837 21.281 157.827 23.806 154.825 C 29.646 147.866 36.397 141.945 44.06 137.067 C 47.261 135.029 50.588 133.267 54.035 131.783 C 69.217 125.253 85.158 123.491 101.861 126.494 Z M 152.326 157.443 C 154.259 161.891 157.096 168.525 158.732 172.59 C 156.688 167.501 154.552 162.453 152.326 157.443 Z M 158.876 172.948 C 159.046 173.373 159.216 173.797 159.387 174.221 C 159.216 173.797 159.046 173.373 158.876 172.948 Z M 177.632 215.055 C 180.519 221.097 182.074 224.093 182.097 224.142 C 182.074 224.093 180.586 221.064 177.632 215.055 Z"/>
  <path fill="rgb(129,148,224)" fill-opacity="1.000" d="M 440.936 143.025 C 444.741 143.821 448.413 145.015 451.956 146.601 C 459.099 149.966 465.27 154.617 470.474 160.555 C 475.116 165.851 478.942 171.651 481.952 177.954 C 483.546 181.283 484.966 184.771 486.213 188.416 C 489.23 197.237 490.715 206.462 490.666 216.089 C 490.62 224.957 489.352 233.46 486.862 241.599 C 482.459 255.994 475.308 268.554 465.41 279.276 C 455.411 290.114 443.156 297.677 428.644 301.965 C 413.333 305.914 398.169 305.451 383.151 300.574 C 377.889 298.864 369.223 295.56 357.156 290.663 C 340.575 284.159 320.219 275.937 296.089 265.994 C 292.584 264.552 289.581 263.041 287.08 261.462 C 279.619 256.4 276.086 249.27 276.479 240.073 C 276.701 234.964 278.674 230.683 282.401 227.227 C 296.277 214.368 311.223 201.202 327.238 187.726 C 334.324 181.765 340.955 176.533 347.13 172.032 C 358.029 164.082 369.649 157.375 381.987 151.912 C 398.153 144.752 414.994 141.566 431.815 142.268 C 431.815 142.268 431.815 142.268 431.815 142.268 C 434.991 142.268 437.8 142.488 440.936 143.025 Z M 289.261 259.762 C 302.714 250.166 311.491 243.838 315.585 240.781 C 315.874 240.565 316.162 240.349 316.45 240.133 C 316.162 240.348 315.874 240.564 315.585 240.78 C 311.491 243.838 302.714 250.165 289.261 259.762 C 289.251 259.77 289.069 259.873 288.715 260.072 C 289.069 259.873 289.251 259.77 289.261 259.762 Z M 287.08 261.462 C 287.08 261.462 287.08 261.462 287.08 261.462 C 287.08 261.462 287.08 261.462 287.08 261.462 Z M 334.963 225.772 C 339.672 221.983 344.139 218.273 348.362 214.642 C 344.136 218.27 339.671 221.982 334.963 225.772 Z"/>
  <path fill="rgb(129,148,224)" fill-opacity="1.000" d="M 230.533 276.45 C 226.94 273.315 224.572 269.578 223.43 265.237 C 221.249 256.968 222.827 249.72 228.166 243.497 C 232.359 238.607 237.823 236.112 244.555 236.009 C 251.478 235.9 257.167 238.502 261.615 243.814 C 263.488 246.056 264.893 248.476 265.832 251.076 C 266.746 253.626 267.152 256.342 267.045 259.223 C 266.837 265.026 264.647 270.132 260.48 274.54 C 258.399 276.739 256.041 278.49 253.404 279.79 C 250.726 281.108 247.94 281.809 245.046 281.892 C 239.704 282.049 234.866 280.236 230.533 276.45 Z"/>
  <path fill="rgb(129,148,224)" fill-opacity="1.000" d="M 84.313 331.764 C 92.884 323.359 102.54 316.574 113.277 311.409 C 115.906 310.142 119.399 308.739 123.753 307.199 C 147.609 298.775 171.552 290.605 195.581 282.688 C 200.513 281.069 202.999 280.252 203.04 280.241 C 204.762 279.811 206.513 279.563 208.289 279.496 C 210.009 279.426 211.744 279.633 213.5 280.112 C 221.809 282.38 227.392 287.61 230.25 295.806 C 230.986 297.919 231.292 300.221 231.167 302.711 C 231.147 303.035 230.867 305.31 230.326 309.537 C 230.004 312.015 229.653 314.492 229.273 316.963 C 225.604 344.024 222.834 363.333 220.96 374.889 C 218.549 389.761 214.508 404.178 208.839 418.132 C 205.425 426.521 201.354 434.372 196.626 441.68 C 192.645 447.833 187.914 453.558 182.437 458.855 C 176.44 464.652 169.687 469.387 162.187 473.057 C 153.518 477.027 144.475 479.067 135.056 479.176 C 131.341 479.218 127.592 478.921 123.81 478.283 C 111.724 476.238 100.793 471.289 91.015 463.437 C 86.081 459.47 81.71 455.08 77.906 450.263 C 75.615 447.364 73.441 444.286 71.384 441.031 C 65.193 431.217 61.25 420.474 59.556 408.808 C 58.025 398.242 58.156 387.704 59.95 377.188 C 61.329 369.114 63.864 361.426 67.552 354.122 C 69.613 350.097 72.055 346.321 74.876 342.795 C 77.698 338.844 80.844 335.167 84.313 331.764 Z M 229.273 316.963 C 228.972 316.922 228.615 316.981 228.199 317.138 C 228.615 316.981 228.972 316.922 229.273 316.963 Z M 102.849 350.549 C 100.005 350.149 96.823 349.512 93.304 348.633 C 96.823 349.512 100.005 350.149 102.849 350.549 Z M 93.304 348.633 C 89.744 347.743 86.625 346.831 83.952 345.892 C 86.625 346.831 89.744 347.743 93.304 348.633 Z M 83.952 345.892 C 79.31 344.261 76.285 343.229 74.876 342.795 C 76.285 343.229 79.31 344.261 83.952 345.892 Z"/>
  <path fill="rgb(129,148,224)" fill-opacity="1.000" d="M 249.522 435.074 C 247.807 431.197 246.638 428.009 245.607 423.897 C 245.607 423.897 245.607 423.897 245.607 423.897 C 242.389 412.866 240.827 400.838 241.333 389.429 C 241.405 387.805 241.663 384.044 242.107 378.144 C 242.44 373.705 242.83 369.843 243.284 366.554 C 244.248 359.52 247.026 339.975 251.618 307.921 C 252.271 303.359 252.693 300.728 252.89 300.027 C 253.61 297.44 254.822 295.02 256.529 292.771 C 258.342 290.377 260.425 288.355 262.779 286.701 C 265.228 284.975 267.817 283.768 270.549 283.078 C 273.952 282.22 277.348 282.204 280.739 283.033 C 281.131 283.126 284.247 284.269 290.086 286.46 C 297.632 289.288 305.162 292.155 312.673 295.065 C 332.785 302.518 352.737 310.371 372.531 318.626 C 377.238 320.588 380.672 322.136 382.834 323.272 C 391.35 327.743 399.001 333.588 405.791 340.806 C 408.943 344.16 411.569 347.6 413.668 351.132 L 414.673 352.779 C 417.287 357.582 419.329 362.456 420.591 367.542 C 422.564 375.495 423.523 383.69 423.467 392.125 C 423.395 402.56 421.507 412.642 417.799 422.37 C 411.067 440.055 399.811 454.804 384.033 466.613 C 372.552 475.211 359.967 480.663 346.276 482.968 C 339.043 484.185 331.226 484.57 322.823 484.122 C 313.198 483.603 303.913 481.573 294.97 478.025 C 286.545 474.784 278.917 470.216 272.081 464.32 C 266.599 459.75 261.842 454.522 257.812 448.638 C 254.629 444.371 251.864 439.851 249.522 435.074 Z M 246.774 419.931 C 247.48 417.464 248.321 414.472 248.934 412.329 C 248.344 414.298 247.477 417.424 246.774 419.931 Z M 263.006 362.903 C 266.943 348.756 270.673 334.552 274.545 320.382 C 270.673 334.552 266.931 348.779 263.006 362.903 Z M 275.337 319.975 C 289.751 325.458 304.197 330.977 318.676 336.534 C 304.197 330.977 289.751 325.458 275.337 319.975 Z M 318.676 336.534 C 328.449 340.286 338.261 343.928 348.114 347.458 C 338.261 343.928 328.449 340.286 318.676 336.534 Z M 361.202 352.221 C 368.472 354.711 375.507 356.239 382.302 356.805 C 375.507 356.239 368.472 354.711 361.202 352.221 Z M 382.302 356.805 C 388.927 357.354 395.754 356.703 402.788 354.85 C 395.754 356.703 388.927 357.354 382.302 356.805 Z M 402.788 354.85 C 406.496 353.842 410.122 352.604 413.668 351.132 C 410.122 352.604 406.496 353.842 402.788 354.85 Z" style=""/>
</svg>